<svg xmlns="http://www.w3.org/2000/svg" viewBox="0 0 120 140" fill="none" stroke="#1f2a24" stroke-width="2" stroke-linecap="round" stroke-linejoin="round" aria-hidden="true">
  <path d="M12 120c36-36 12-72 60-108" />
  <path d="M28 112c10-18 18-28 36-44" />
  <path d="M36 124c18-12 24-22 44-40" />
  <path d="M20 88c12-6 24-8 36-6" />
  <path d="M32 68c8-2 16-4 24-2" />
  <path d="M52 62c4-8 10-14 18-18" />
  <path d="M26 108c-2-8-4-14-10-20" />
  <path d="M18 90c-4-6-10-10-16-12" />
  <path d="M64 24c6-6 14-10 22-12" />
</svg>
