<svg xmlns="http://www.w3.org/2000/svg" xmlns:xlink="http://www.w3.org/1999/xlink" width="2746" zoomAndPan="magnify" viewBox="0 0 2059.5 179.999997" height="240" preserveAspectRatio="xMidYMid meet" version="1.0"><defs><clipPath id="63f3a2fa63"><path d="M 14.398438 129 L 86 129 L 86 146 L 14.398438 146 Z M 14.398438 129 " clip-rule="nonzero"/></clipPath><clipPath id="99389a884d"><path d="M 1972 129 L 2044.152344 129 L 2044.152344 146 L 1972 146 Z M 1972 129 " clip-rule="nonzero"/></clipPath></defs><g clip-path="url(#63f3a2fa63)"><path fill="#000000" d="M 85.316406 137.597656 C 84.746094 137.476562 84.261719 137.394531 83.855469 137.273438 C 83.734375 137.273438 83.609375 137.230469 83.449219 137.191406 L 83.246094 137.191406 C 82.273438 136.90625 80.972656 136.582031 79.714844 136.214844 C 77.480469 135.566406 75.453125 134.796875 73.585938 133.902344 C 71.515625 132.886719 69.847656 131.75 68.632812 130.53125 L 67.859375 129.761719 C 66.96875 129.761719 66.074219 129.679688 65.179688 129.679688 C 63.273438 129.636719 61.324219 129.597656 59.375 129.597656 C 57.425781 129.597656 55.519531 129.597656 53.613281 129.597656 C 51.703125 129.597656 49.796875 129.679688 47.96875 129.761719 C 47.523438 129.761719 47.035156 129.761719 46.589844 129.839844 L 45.816406 129.839844 C 45.816406 129.839844 45.492188 130.125 45.328125 130.246094 C 44.597656 130.773438 43.746094 131.261719 42.894531 131.75 C 42 132.195312 41.109375 132.644531 40.132812 133.050781 C 38.226562 133.859375 36.15625 134.550781 34.042969 135.121094 C 29.824219 136.257812 25.558594 136.90625 21.945312 137.230469 C 18.902344 137.515625 16.34375 137.597656 14.398438 137.636719 C 16.34375 137.636719 18.941406 137.757812 21.945312 138.042969 C 25.558594 138.367188 29.863281 139.019531 34.042969 140.15625 C 36.15625 140.722656 38.226562 141.414062 40.132812 142.226562 C 41.109375 142.632812 42 143.078125 42.894531 143.527344 C 43.746094 144.011719 44.597656 144.5 45.328125 145.027344 C 45.492188 145.148438 45.65625 145.273438 45.816406 145.394531 L 46.589844 145.394531 L 47.96875 145.476562 C 49.835938 145.554688 51.703125 145.597656 53.613281 145.636719 C 54.097656 145.636719 54.585938 145.636719 55.03125 145.636719 L 59.375 145.636719 C 61.324219 145.636719 63.234375 145.636719 65.140625 145.554688 C 66.035156 145.554688 66.925781 145.515625 67.820312 145.476562 L 68.589844 144.703125 C 69.808594 143.484375 71.472656 142.347656 73.542969 141.332031 C 75.371094 140.441406 77.441406 139.667969 79.671875 138.976562 C 81.417969 138.449219 83.410156 137.960938 85.480469 137.554688 L 85.195312 137.554688 Z M 85.316406 137.597656 " fill-opacity="1" fill-rule="nonzero"/></g><g clip-path="url(#99389a884d)"><path fill="#000000" d="M 2036.601562 137.273438 C 2032.988281 136.949219 2028.6875 136.296875 2024.503906 135.160156 C 2022.394531 134.59375 2020.324219 133.902344 2018.417969 133.089844 C 2017.441406 132.683594 2016.550781 132.238281 2015.65625 131.789062 C 2014.804688 131.304688 2013.949219 130.816406 2013.21875 130.289062 C 2013.058594 130.167969 2012.894531 130.042969 2012.734375 129.921875 L 2011.960938 129.921875 C 2011.515625 129.882812 2011.027344 129.839844 2010.582031 129.839844 C 2008.714844 129.761719 2006.847656 129.71875 2004.9375 129.679688 C 2003.03125 129.679688 2001.082031 129.636719 1999.175781 129.679688 C 1997.226562 129.679688 1995.316406 129.679688 1993.371094 129.761719 C 1992.476562 129.761719 1991.582031 129.800781 1990.691406 129.839844 L 1989.917969 130.613281 C 1988.699219 131.832031 1987.035156 132.925781 1984.964844 133.984375 C 1983.140625 134.875 1981.070312 135.648438 1978.835938 136.339844 C 1977.578125 136.703125 1976.277344 137.027344 1975.304688 137.273438 L 1975.101562 137.273438 C 1975.101562 137.273438 1974.859375 137.394531 1974.695312 137.394531 C 1974.289062 137.476562 1973.800781 137.597656 1973.234375 137.71875 L 1972.949219 137.71875 C 1975.0625 138.164062 1977.007812 138.652344 1978.753906 139.179688 C 1980.988281 139.832031 1983.058594 140.601562 1984.886719 141.496094 C 1986.957031 142.511719 1988.660156 143.648438 1989.835938 144.867188 L 1990.609375 145.636719 C 1991.5 145.636719 1992.394531 145.71875 1993.289062 145.71875 C 1995.195312 145.757812 1997.144531 145.800781 1999.050781 145.800781 L 2003.394531 145.800781 C 2003.882812 145.800781 2004.371094 145.800781 2004.816406 145.800781 C 2006.726562 145.800781 2008.59375 145.71875 2010.460938 145.636719 L 2011.839844 145.554688 L 2012.613281 145.554688 C 2012.613281 145.554688 2012.9375 145.273438 2013.097656 145.148438 C 2013.828125 144.621094 2014.683594 144.136719 2015.535156 143.648438 C 2016.425781 143.199219 2017.320312 142.753906 2018.292969 142.347656 C 2020.203125 141.535156 2022.273438 140.847656 2024.382812 140.277344 C 2028.605469 139.140625 2032.867188 138.492188 2036.480469 138.164062 C 2039.527344 137.882812 2042.082031 137.800781 2044.03125 137.757812 C 2042.082031 137.757812 2039.484375 137.636719 2036.480469 137.355469 Z M 2036.601562 137.273438 " fill-opacity="1" fill-rule="nonzero"/></g><path fill="#000000" d="M 1959.511719 131.019531 C 1955.859375 131.019531 1952.855469 133.984375 1952.855469 137.679688 C 1952.855469 141.375 1955.820312 144.339844 1959.511719 144.339844 C 1963.207031 144.339844 1966.171875 141.375 1966.171875 137.679688 C 1966.171875 133.984375 1963.207031 131.019531 1959.511719 131.019531 Z M 1959.511719 131.019531 " fill-opacity="1" fill-rule="nonzero"/><path fill="#000000" d="M 105.695312 137.636719 C 105.695312 138.074219 105.652344 138.507812 105.566406 138.9375 C 105.480469 139.367188 105.355469 139.78125 105.1875 140.1875 C 105.019531 140.589844 104.816406 140.972656 104.574219 141.335938 C 104.332031 141.703125 104.054688 142.039062 103.746094 142.347656 C 103.4375 142.65625 103.101562 142.933594 102.734375 143.175781 C 102.371094 143.417969 101.988281 143.625 101.585938 143.789062 C 101.179688 143.957031 100.765625 144.085938 100.335938 144.167969 C 99.90625 144.253906 99.472656 144.296875 99.039062 144.296875 C 98.601562 144.296875 98.167969 144.253906 97.738281 144.167969 C 97.308594 144.085938 96.894531 143.957031 96.488281 143.789062 C 96.085938 143.625 95.703125 143.417969 95.339844 143.175781 C 94.976562 142.933594 94.640625 142.65625 94.328125 142.347656 C 94.019531 142.039062 93.746094 141.703125 93.5 141.335938 C 93.257812 140.972656 93.054688 140.589844 92.886719 140.1875 C 92.71875 139.78125 92.59375 139.367188 92.507812 138.9375 C 92.421875 138.507812 92.378906 138.074219 92.378906 137.636719 C 92.378906 137.199219 92.421875 136.765625 92.507812 136.339844 C 92.59375 135.910156 92.71875 135.492188 92.886719 135.089844 C 93.054688 134.683594 93.257812 134.300781 93.5 133.9375 C 93.746094 133.574219 94.019531 133.238281 94.328125 132.929688 C 94.640625 132.621094 94.976562 132.34375 95.339844 132.101562 C 95.703125 131.859375 96.085938 131.652344 96.488281 131.484375 C 96.894531 131.316406 97.308594 131.191406 97.738281 131.105469 C 98.167969 131.019531 98.601562 130.976562 99.039062 130.976562 C 99.472656 130.976562 99.90625 131.019531 100.335938 131.105469 C 100.765625 131.191406 101.179688 131.316406 101.585938 131.484375 C 101.988281 131.652344 102.371094 131.859375 102.734375 132.101562 C 103.101562 132.34375 103.4375 132.621094 103.746094 132.929688 C 104.054688 133.238281 104.332031 133.574219 104.574219 133.9375 C 104.816406 134.300781 105.019531 134.683594 105.1875 135.089844 C 105.355469 135.492188 105.480469 135.910156 105.566406 136.339844 C 105.652344 136.765625 105.695312 137.199219 105.695312 137.636719 Z M 105.695312 137.636719 " fill-opacity="1" fill-rule="nonzero"/><path fill="#000000" d="M 1943.476562 131.140625 C 1940.796875 131.140625 1938.484375 132.765625 1937.511719 135.078125 L 1917.699219 135.078125 C 1916.765625 133.375 1914.941406 132.195312 1912.867188 132.195312 C 1910.796875 132.195312 1908.972656 133.375 1908.039062 135.078125 L 150.511719 135.078125 C 149.578125 133.375 147.75 132.195312 145.679688 132.195312 C 143.609375 132.195312 141.785156 133.375 140.851562 135.078125 L 121.039062 135.078125 C 120.023438 132.765625 117.75 131.140625 115.074219 131.140625 C 111.460938 131.140625 108.535156 134.0625 108.535156 137.679688 C 108.535156 141.292969 111.460938 144.214844 115.074219 144.214844 C 117.75 144.214844 120.066406 142.59375 121.039062 140.277344 L 140.851562 140.277344 C 141.785156 141.984375 143.609375 143.160156 145.679688 143.160156 C 147.75 143.160156 149.578125 141.984375 150.511719 140.277344 L 1908.039062 140.277344 C 1908.972656 141.984375 1910.796875 143.160156 1912.867188 143.160156 C 1914.941406 143.160156 1916.765625 141.984375 1917.699219 140.277344 L 1937.511719 140.277344 C 1938.523438 142.59375 1940.796875 144.214844 1943.476562 144.214844 C 1947.089844 144.214844 1950.011719 141.292969 1950.011719 137.679688 C 1950.011719 134.0625 1947.089844 131.140625 1943.476562 131.140625 Z M 1943.476562 131.140625 " fill-opacity="1" fill-rule="nonzero"/><path fill="#000000" d="M 1023.105469 23.125 C 1023.753906 25.84375 1024.972656 28.484375 1026.554688 30.839844 C 1027.367188 32.015625 1028.261719 33.113281 1029.234375 34.167969 L 1029.316406 34.25 L 1029.398438 34.167969 C 1030.371094 33.152344 1031.265625 32.015625 1032.078125 30.839844 C 1033.660156 28.484375 1034.878906 25.886719 1035.527344 23.125 C 1035.851562 21.742188 1036.054688 20.363281 1036.09375 18.980469 C 1036.09375 17.601562 1036.015625 16.179688 1035.730469 14.839844 L 1035.730469 14.636719 L 1035.648438 14.433594 L 1035.566406 14.066406 C 1035.484375 13.824219 1035.445312 13.539062 1035.363281 13.296875 C 1035.203125 12.808594 1035.039062 12.28125 1034.835938 11.792969 L 1034.675781 11.429688 C 1034.675781 11.429688 1034.550781 11.183594 1034.511719 11.0625 L 1034.429688 10.902344 L 1034.347656 10.738281 L 1034.1875 10.371094 L 1033.984375 10.007812 L 1033.902344 9.84375 L 1033.820312 9.683594 L 1033.617188 9.359375 C 1033.617188 9.359375 1033.496094 9.15625 1033.414062 9.074219 C 1033.132812 8.667969 1032.808594 8.261719 1032.441406 7.894531 C 1032.078125 7.53125 1031.710938 7.125 1031.34375 6.800781 C 1030.980469 6.472656 1030.574219 6.148438 1030.207031 5.945312 C 1030.003906 5.824219 1029.84375 5.742188 1029.679688 5.703125 L 1029.476562 5.703125 L 1029.476562 5.582031 L 1029.398438 5.582031 C 1029.398438 5.582031 1029.273438 5.582031 1029.113281 5.664062 C 1028.949219 5.703125 1028.789062 5.824219 1028.585938 5.90625 C 1028.21875 6.148438 1027.8125 6.433594 1027.449219 6.757812 C 1027.082031 7.082031 1026.675781 7.449219 1026.351562 7.855469 C 1025.988281 8.21875 1025.660156 8.625 1025.378906 9.03125 C 1025.296875 9.113281 1025.257812 9.234375 1025.175781 9.316406 L 1024.972656 9.640625 L 1024.890625 9.804688 L 1024.808594 9.964844 L 1024.605469 10.332031 L 1024.445312 10.699219 L 1024.363281 10.859375 L 1024.28125 11.023438 C 1024.28125 11.023438 1024.160156 11.265625 1024.121094 11.386719 L 1023.957031 11.753906 C 1023.753906 12.242188 1023.589844 12.726562 1023.429688 13.257812 C 1023.347656 13.5 1023.265625 13.742188 1023.226562 14.027344 L 1023.144531 14.394531 L 1023.144531 14.597656 L 1023.0625 14.800781 C 1022.78125 16.140625 1022.65625 17.558594 1022.699219 18.941406 C 1022.699219 20.320312 1022.941406 21.742188 1023.265625 23.082031 Z M 1023.105469 23.125 " fill-opacity="1" fill-rule="nonzero"/><path fill="#000000" d="M 1022.617188 54.960938 C 1025.011719 57.273438 1027.246094 59.792969 1029.273438 62.433594 C 1031.304688 59.792969 1033.539062 57.273438 1035.933594 54.960938 C 1035.8125 54.878906 1035.6875 54.757812 1035.566406 54.675781 L 1034.917969 54.109375 C 1034.472656 53.742188 1034.023438 53.375 1033.539062 52.96875 C 1033.089844 52.605469 1032.605469 52.238281 1032.15625 51.875 L 1031.46875 51.347656 C 1031.222656 51.183594 1030.980469 50.980469 1030.738281 50.816406 C 1030.25 50.453125 1029.761719 50.128906 1029.273438 49.804688 C 1028.789062 50.128906 1028.300781 50.492188 1027.8125 50.816406 C 1027.570312 50.980469 1027.328125 51.144531 1027.082031 51.347656 L 1026.394531 51.875 C 1025.90625 52.238281 1025.460938 52.605469 1025.011719 52.96875 C 1024.566406 53.335938 1024.078125 53.703125 1023.632812 54.109375 L 1022.984375 54.675781 C 1022.984375 54.675781 1022.738281 54.878906 1022.617188 54.960938 Z M 1022.617188 54.960938 " fill-opacity="1" fill-rule="nonzero"/><path fill="#000000" d="M 1024.363281 43.144531 L 1024.769531 43.347656 C 1025.296875 43.628906 1025.863281 43.914062 1026.394531 44.238281 C 1027.367188 44.808594 1028.339844 45.375 1029.273438 45.984375 C 1030.207031 45.375 1031.183594 44.808594 1032.15625 44.238281 C 1032.683594 43.914062 1033.253906 43.628906 1033.78125 43.347656 L 1035.40625 42.535156 L 1034.511719 42.085938 C 1033.089844 41.355469 1031.710938 40.503906 1030.453125 39.527344 C 1030.046875 39.203125 1029.640625 38.921875 1029.273438 38.59375 C 1028.871094 38.921875 1028.503906 39.246094 1028.097656 39.527344 C 1026.839844 40.503906 1025.460938 41.355469 1024.039062 42.085938 L 1023.144531 42.535156 Z M 1024.363281 43.144531 " fill-opacity="1" fill-rule="nonzero"/><path fill="#000000" d="M 838.601562 116.15625 C 838.601562 116.15625 838.800781 115.953125 838.925781 115.871094 L 839.289062 115.546875 C 840.34375 114.652344 841.929688 113.394531 844.203125 112.09375 C 846.433594 110.796875 849.316406 109.414062 852.765625 108.195312 C 854.511719 107.589844 856.378906 106.980469 858.371094 106.410156 C 860.398438 105.84375 862.511719 105.3125 864.742188 104.867188 C 866.976562 104.421875 869.371094 104.054688 871.847656 103.8125 C 872.457031 103.730469 873.105469 103.691406 873.714844 103.648438 C 874.039062 103.648438 874.363281 103.609375 874.6875 103.566406 C 875.015625 103.566406 875.339844 103.527344 875.664062 103.488281 L 876.636719 103.488281 L 877.125 103.40625 L 878.625 103.40625 L 879.640625 103.324219 C 882.320312 103.285156 885.082031 103.40625 887.964844 103.609375 C 890.804688 103.8125 893.726562 104.175781 896.730469 104.664062 C 899.695312 105.152344 902.738281 105.761719 905.824219 106.492188 C 908.910156 107.222656 912.035156 108.074219 915.203125 109.050781 C 918.371094 110.023438 921.535156 111.039062 924.742188 112.257812 C 927.949219 113.4375 931.199219 114.734375 934.445312 116.117188 C 937.734375 117.496094 940.980469 118.835938 944.226562 120.175781 C 945.851562 120.828125 947.476562 121.476562 949.101562 122.125 L 950.316406 122.613281 C 950.722656 122.777344 951.171875 122.9375 951.578125 123.058594 C 952.386719 123.382812 953.242188 123.667969 954.09375 123.953125 C 954.296875 124.035156 954.5 124.074219 954.703125 124.15625 L 955.3125 124.359375 L 955.917969 124.5625 L 956.246094 124.644531 L 956.570312 124.722656 C 957.421875 124.96875 958.234375 125.210938 959.085938 125.414062 C 959.492188 125.535156 959.9375 125.617188 960.34375 125.738281 L 961.601562 126.023438 C 961.804688 126.066406 962.007812 126.105469 962.210938 126.144531 L 962.820312 126.269531 L 964.078125 126.511719 C 967.40625 127.121094 970.695312 127.527344 973.945312 127.730469 L 975.160156 127.730469 C 975.566406 127.8125 975.972656 127.8125 976.378906 127.8125 L 977.558594 127.8125 C 977.960938 127.8125 978.367188 127.8125 978.734375 127.8125 C 979.503906 127.8125 980.316406 127.8125 981.089844 127.730469 L 982.265625 127.730469 C 982.671875 127.648438 983.039062 127.609375 983.441406 127.566406 C 984.214844 127.527344 984.984375 127.40625 985.714844 127.324219 C 986.082031 127.324219 986.488281 127.203125 986.851562 127.160156 C 987.21875 127.121094 987.582031 127.039062 987.949219 127 L 989.046875 126.796875 L 989.574219 126.714844 L 990.101562 126.59375 L 991.15625 126.347656 C 991.15625 126.347656 991.523438 126.269531 991.683594 126.226562 L 992.210938 126.105469 C 995.011719 125.414062 997.652344 124.523438 1000.128906 123.507812 C 1002.605469 122.492188 1004.878906 121.3125 1006.988281 120.09375 C 1009.097656 118.878906 1010.964844 117.535156 1012.710938 116.195312 C 1013.160156 115.871094 1013.566406 115.546875 1013.972656 115.183594 L 1014.578125 114.695312 L 1014.863281 114.449219 C 1014.863281 114.449219 1015.066406 114.289062 1015.148438 114.207031 C 1015.511719 113.882812 1015.917969 113.515625 1016.285156 113.191406 L 1017.339844 112.175781 C 1017.339844 112.175781 1017.664062 111.851562 1017.828125 111.6875 L 1018.3125 111.203125 C 1018.3125 111.203125 1018.640625 110.878906 1018.800781 110.714844 L 1019.25 110.226562 L 1019.695312 109.738281 L 1020.101562 109.253906 L 1020.914062 108.277344 C 1020.914062 108.277344 1021.15625 107.953125 1021.277344 107.792969 L 1021.644531 107.34375 C 1021.886719 107.019531 1022.128906 106.734375 1022.332031 106.449219 C 1022.78125 105.84375 1023.1875 105.273438 1023.550781 104.746094 L 1024.078125 103.933594 C 1024.242188 103.691406 1024.402344 103.40625 1024.566406 103.160156 L 1025.011719 102.429688 C 1025.175781 102.1875 1025.296875 101.945312 1025.417969 101.742188 L 1025.785156 101.089844 L 1025.945312 100.804688 L 1026.109375 100.523438 L 1026.636719 99.464844 C 1026.796875 99.140625 1026.921875 98.898438 1027.042969 98.652344 L 1027.328125 98.046875 L 1027.570312 97.558594 L 1027.285156 98.003906 L 1026.921875 98.574219 C 1026.757812 98.777344 1026.597656 99.058594 1026.394531 99.34375 L 1025.703125 100.277344 L 1025.296875 100.847656 L 1024.851562 101.414062 C 1024.851562 101.414062 1024.523438 101.820312 1024.363281 102.023438 L 1023.835938 102.675781 C 1023.632812 102.878906 1023.46875 103.121094 1023.265625 103.363281 L 1022.65625 104.097656 C 1022.253906 104.582031 1021.765625 105.070312 1021.277344 105.597656 C 1021.035156 105.882812 1020.75 106.125 1020.507812 106.371094 L 1020.101562 106.777344 C 1020.101562 106.777344 1019.816406 107.058594 1019.695312 107.183594 L 1018.800781 107.992188 L 1018.558594 108.195312 L 1018.3125 108.398438 L 1017.828125 108.804688 L 1017.339844 109.210938 C 1017.339844 109.210938 1017.015625 109.496094 1016.851562 109.617188 L 1016.324219 110.023438 C 1016.324219 110.023438 1015.960938 110.308594 1015.796875 110.472656 C 1012.914062 112.746094 1009.425781 114.980469 1005.324219 116.929688 C 1003.253906 117.902344 1001.0625 118.753906 998.707031 119.484375 C 996.351562 120.21875 993.875 120.828125 991.277344 121.273438 L 990.789062 121.355469 C 990.789062 121.355469 990.464844 121.394531 990.304688 121.433594 L 989.328125 121.558594 L 988.84375 121.636719 L 988.355469 121.636719 L 987.339844 121.800781 C 987.015625 121.800781 986.648438 121.839844 986.324219 121.882812 C 986 121.882812 985.636719 121.921875 985.308594 121.964844 C 984.621094 121.964844 983.929688 122.042969 983.238281 122.042969 C 982.875 122.042969 982.550781 122.042969 982.183594 122.042969 L 981.128906 122.042969 C 980.398438 122.042969 979.707031 122.003906 978.976562 121.964844 C 978.613281 121.964844 978.246094 121.964844 977.882812 121.882812 L 976.785156 121.800781 C 976.421875 121.800781 976.054688 121.71875 975.691406 121.71875 L 975.121094 121.71875 L 974.835938 121.636719 L 974.554688 121.636719 C 971.589844 121.273438 968.585938 120.785156 965.539062 120.054688 L 964.402344 119.769531 L 963.835938 119.648438 C 963.835938 119.648438 963.46875 119.527344 963.265625 119.484375 L 962.128906 119.160156 C 961.765625 119.039062 961.359375 118.917969 960.992188 118.835938 C 960.222656 118.632812 959.492188 118.347656 958.71875 118.105469 L 958.4375 118.023438 L 958.152344 117.941406 L 957.585938 117.738281 L 957.015625 117.535156 C 957.015625 117.535156 956.648438 117.414062 956.449219 117.332031 C 955.675781 117.050781 954.945312 116.765625 954.175781 116.480469 C 953.808594 116.320312 953.402344 116.195312 953.039062 116.035156 L 951.859375 115.546875 C 950.277344 114.898438 948.695312 114.207031 947.109375 113.558594 C 943.902344 112.175781 940.65625 110.796875 937.328125 109.414062 C 934 108.035156 930.628906 106.734375 927.300781 105.515625 C 923.929688 104.296875 920.5625 103.285156 917.234375 102.390625 C 913.902344 101.496094 910.574219 100.726562 907.328125 100.074219 C 904.039062 99.464844 900.832031 98.980469 897.625 98.652344 C 894.457031 98.328125 891.332031 98.125 888.328125 98.125 C 885.285156 98.125 882.359375 98.207031 879.519531 98.453125 L 878.464844 98.53125 L 877.410156 98.65625 L 876.882812 98.65625 L 876.351562 98.777344 L 875.339844 98.898438 C 875.011719 98.9375 874.648438 98.980469 874.324219 99.058594 C 874 99.101562 873.675781 99.140625 873.308594 99.222656 C 872.660156 99.34375 872.007812 99.425781 871.359375 99.589844 C 868.761719 100.074219 866.328125 100.683594 864.011719 101.375 C 861.699219 102.066406 859.546875 102.835938 857.558594 103.648438 C 855.570312 104.460938 853.699219 105.273438 851.996094 106.125 C 848.585938 107.792969 845.824219 109.578125 843.675781 111.203125 C 841.5625 112.828125 840.101562 114.328125 839.207031 115.382812 L 838.882812 115.75 C 838.882812 115.75 838.679688 115.992188 838.601562 116.074219 C 838.4375 116.277344 838.273438 116.441406 838.195312 116.601562 L 837.867188 117.050781 L 838.234375 116.683594 C 838.234375 116.683594 838.519531 116.398438 838.722656 116.238281 Z M 838.601562 116.15625 " fill-opacity="1" fill-rule="nonzero"/><path fill="#000000" d="M 907.246094 82.167969 C 907.449219 82.777344 907.691406 83.425781 908.015625 83.996094 C 908.34375 84.605469 908.707031 85.171875 909.113281 85.699219 C 909.519531 86.226562 909.964844 86.757812 910.492188 87.242188 C 911.507812 88.175781 912.6875 88.949219 913.945312 89.515625 C 915.203125 90.085938 916.582031 90.410156 917.964844 90.453125 C 918.652344 90.492188 919.34375 90.453125 920.035156 90.371094 C 920.113281 90.371094 920.195312 90.371094 920.277344 90.371094 L 920.519531 90.371094 C 920.519531 90.371094 920.84375 90.289062 921.007812 90.25 C 921.171875 90.25 921.332031 90.167969 921.535156 90.125 L 921.777344 90.046875 C 921.777344 90.046875 921.941406 90.003906 922.023438 89.964844 C 923.363281 89.515625 924.539062 88.828125 925.515625 87.933594 C 926.488281 87.039062 927.21875 85.984375 927.746094 84.847656 C 928.234375 83.710938 928.519531 82.53125 928.519531 81.4375 C 928.519531 80.867188 928.519531 80.339844 928.4375 79.8125 C 928.4375 79.691406 928.394531 79.570312 928.355469 79.40625 C 928.355469 79.285156 928.316406 79.164062 928.273438 79 C 928.273438 78.878906 928.191406 78.757812 928.152344 78.632812 C 928.152344 78.511719 928.070312 78.390625 928.03125 78.269531 C 927.664062 77.292969 927.136719 76.480469 926.527344 75.875 C 925.921875 75.222656 925.230469 74.777344 924.621094 74.453125 C 923.972656 74.128906 923.363281 73.964844 922.792969 73.84375 C 922.226562 73.761719 921.777344 73.722656 921.375 73.761719 C 921.171875 73.761719 921.007812 73.761719 920.84375 73.800781 C 920.683594 73.800781 920.5625 73.800781 920.480469 73.84375 L 920.195312 73.925781 L 920.480469 73.925781 C 920.480469 73.925781 920.683594 73.925781 920.84375 73.925781 C 921.007812 73.925781 921.171875 73.925781 921.332031 73.964844 C 921.699219 74.003906 922.144531 74.085938 922.632812 74.289062 C 923.117188 74.453125 923.648438 74.734375 924.175781 75.101562 C 924.703125 75.46875 925.1875 75.953125 925.59375 76.605469 C 926 77.214844 926.324219 77.945312 926.488281 78.714844 C 926.652344 79.488281 926.652344 80.378906 926.488281 81.234375 C 926.324219 82.085938 926 82.9375 925.515625 83.710938 C 925.027344 84.480469 924.378906 85.171875 923.648438 85.660156 C 922.875 86.1875 922.023438 86.554688 921.128906 86.714844 L 920.804688 86.714844 C 920.804688 86.714844 920.5625 86.796875 920.480469 86.796875 C 920.359375 86.796875 920.238281 86.796875 920.113281 86.796875 L 919.953125 86.796875 C 919.953125 86.796875 919.832031 86.796875 919.789062 86.796875 C 919.304688 86.796875 918.855469 86.796875 918.371094 86.675781 C 917.4375 86.511719 916.542969 86.1875 915.769531 85.742188 C 914.960938 85.292969 914.269531 84.726562 913.660156 84.074219 C 913.375 83.75 913.09375 83.386719 912.890625 83.019531 C 912.644531 82.65625 912.441406 82.289062 912.28125 81.925781 C 912.117188 81.558594 911.996094 81.152344 911.875 80.746094 C 911.792969 80.339844 911.710938 79.976562 911.671875 79.570312 C 911.589844 78.757812 911.589844 77.945312 911.671875 77.171875 C 911.671875 76.808594 911.753906 76.402344 911.832031 76.035156 C 911.832031 75.953125 911.875 75.832031 911.914062 75.75 C 911.914062 75.671875 911.914062 75.546875 911.996094 75.46875 C 912.035156 75.265625 912.117188 75.0625 912.15625 74.859375 C 912.15625 74.777344 912.238281 74.65625 912.238281 74.574219 L 912.359375 74.289062 L 912.359375 74.128906 L 912.484375 73.964844 L 912.726562 73.394531 L 912.808594 73.234375 L 912.890625 73.070312 L 913.050781 72.785156 L 913.214844 72.503906 L 913.292969 72.339844 L 913.375 72.21875 L 913.78125 71.648438 L 913.863281 71.527344 L 913.984375 71.40625 L 914.1875 71.121094 L 914.429688 70.878906 C 914.429688 70.878906 914.59375 70.714844 914.675781 70.636719 C 914.757812 70.554688 914.835938 70.472656 914.917969 70.390625 C 915.082031 70.230469 915.242188 70.066406 915.445312 69.902344 C 915.609375 69.742188 915.8125 69.621094 916.015625 69.457031 C 916.097656 69.375 916.21875 69.335938 916.300781 69.253906 L 916.460938 69.132812 L 916.625 69.050781 L 916.90625 68.847656 L 917.234375 68.6875 C 917.234375 68.6875 917.4375 68.5625 917.558594 68.523438 C 917.679688 68.484375 917.761719 68.402344 917.882812 68.359375 C 918.085938 68.28125 918.328125 68.15625 918.570312 68.078125 C 918.816406 67.996094 919.019531 67.914062 919.261719 67.832031 C 919.382812 67.792969 919.507812 67.75 919.628906 67.710938 C 919.75 67.710938 919.871094 67.628906 919.992188 67.628906 L 920.359375 67.546875 C 920.359375 67.546875 920.601562 67.507812 920.722656 67.46875 L 921.089844 67.386719 L 921.453125 67.386719 C 921.453125 67.386719 921.699219 67.304688 921.820312 67.304688 L 922.183594 67.304688 C 922.429688 67.265625 922.710938 67.265625 922.957031 67.222656 C 923.972656 67.222656 925.027344 67.265625 926 67.46875 C 927.015625 67.671875 927.949219 67.953125 928.882812 68.320312 C 930.710938 69.089844 932.292969 70.1875 933.550781 71.367188 C 933.714844 71.527344 933.875 71.648438 934 71.8125 L 934.402344 72.257812 L 934.808594 72.746094 L 934.972656 72.988281 L 935.136719 73.234375 L 935.296875 73.476562 L 935.460938 73.722656 C 935.460938 73.722656 935.664062 74.046875 935.785156 74.167969 L 936.070312 74.613281 L 936.148438 74.734375 L 936.230469 74.859375 L 936.351562 75.0625 C 936.597656 75.46875 936.800781 75.914062 937.003906 76.359375 C 937.285156 77.050781 937.410156 77.824219 937.570312 78.554688 C 937.734375 79.324219 937.9375 80.054688 938.140625 80.828125 C 938.585938 82.410156 939.113281 83.953125 939.722656 85.496094 C 939.761719 85.660156 939.84375 85.78125 939.882812 85.945312 C 941.0625 88.867188 942.605469 91.832031 944.511719 94.714844 C 946.421875 97.597656 948.734375 100.441406 951.453125 103.039062 C 952.792969 104.339844 954.253906 105.597656 955.796875 106.734375 C 957.339844 107.914062 958.964844 109.007812 960.667969 110.023438 C 964.078125 112.054688 967.8125 113.679688 971.710938 114.898438 L 972.441406 115.101562 C 972.683594 115.183594 972.929688 115.261719 973.171875 115.304688 L 973.902344 115.507812 L 974.269531 115.585938 L 974.632812 115.667969 C 975.648438 115.914062 976.703125 116.117188 977.71875 116.277344 C 979.789062 116.601562 981.941406 116.765625 984.050781 116.804688 C 988.316406 116.804688 992.617188 116.15625 996.675781 114.898438 C 1000.738281 113.597656 1004.632812 111.730469 1008.085938 109.292969 C 1011.535156 106.898438 1014.621094 104.015625 1017.136719 100.804688 C 1019.695312 97.597656 1021.683594 94.105469 1023.144531 90.53125 L 1023.429688 89.84375 L 1023.671875 89.152344 L 1023.792969 88.828125 L 1023.917969 88.503906 L 1024.160156 87.8125 C 1024.445312 86.917969 1024.726562 86.023438 1024.929688 85.089844 C 1024.972656 84.847656 1025.054688 84.644531 1025.09375 84.402344 L 1025.257812 83.710938 C 1025.257812 83.710938 1025.296875 83.507812 1025.335938 83.386719 L 1025.417969 83.019531 L 1025.539062 82.328125 L 1025.660156 81.640625 L 1025.824219 80.257812 C 1025.824219 80.015625 1025.90625 79.8125 1025.90625 79.570312 L 1026.027344 78.1875 C 1026.027344 78.1875 1026.027344 77.945312 1026.027344 77.824219 L 1026.027344 73.925781 L 1025.945312 73.191406 C 1025.945312 72.949219 1025.945312 72.707031 1025.863281 72.460938 L 1025.660156 71 C 1025.582031 70.511719 1025.5 70.027344 1025.417969 69.539062 C 1025.417969 69.417969 1025.378906 69.292969 1025.335938 69.171875 L 1025.257812 68.808594 L 1025.09375 68.078125 C 1024.648438 66.128906 1023.996094 64.21875 1023.1875 62.351562 L 1022.859375 61.660156 L 1022.699219 61.296875 C 1022.699219 61.296875 1022.578125 61.050781 1022.535156 60.929688 L 1021.847656 59.550781 C 1021.601562 59.101562 1021.316406 58.65625 1021.074219 58.207031 L 1020.992188 58.046875 L 1020.871094 57.882812 L 1020.261719 56.910156 C 1017.949219 53.417969 1014.945312 50.289062 1011.414062 47.773438 C 1007.882812 45.253906 1003.863281 43.386719 999.601562 42.371094 C 999.355469 42.289062 999.070312 42.25 998.789062 42.210938 L 997.570312 41.964844 C 997.570312 41.964844 997.285156 41.925781 997.164062 41.882812 L 996.3125 41.761719 C 996.027344 41.722656 995.742188 41.679688 995.460938 41.679688 L 994.605469 41.601562 L 993.753906 41.601562 L 993.347656 41.519531 L 992.941406 41.519531 C 990.710938 41.476562 988.4375 41.679688 986.242188 42.167969 C 984.050781 42.65625 981.941406 43.425781 979.953125 44.402344 L 979.75 44.484375 C 979.75 44.484375 979.625 44.566406 979.546875 44.566406 L 979.179688 44.769531 C 978.9375 44.890625 978.691406 45.011719 978.449219 45.171875 L 977.757812 45.578125 L 977.394531 45.78125 C 977.394531 45.78125 977.152344 45.945312 977.070312 46.027344 L 976.378906 46.472656 C 976.378906 46.472656 976.136719 46.636719 976.054688 46.71875 L 975.40625 47.203125 C 975.40625 47.203125 975.203125 47.367188 975.082031 47.449219 L 974.429688 47.976562 C 972.765625 49.355469 971.265625 50.941406 969.964844 52.644531 C 968.667969 54.351562 967.609375 56.179688 966.757812 58.128906 C 965.90625 60.035156 965.335938 62.027344 964.929688 64.015625 L 964.851562 64.382812 C 964.851562 64.382812 964.851562 64.625 964.808594 64.746094 L 964.6875 65.519531 C 964.6875 65.761719 964.648438 66.046875 964.605469 66.289062 L 964.605469 66.65625 C 964.605469 66.65625 964.566406 66.898438 964.566406 67.019531 L 964.566406 69.292969 C 964.566406 69.539062 964.566406 69.78125 964.605469 70.066406 C 964.769531 72.054688 965.214844 74.003906 965.90625 75.792969 C 966.554688 77.621094 967.488281 79.285156 968.503906 80.785156 C 969.03125 81.519531 969.601562 82.25 970.207031 82.898438 L 970.453125 83.140625 L 970.574219 83.265625 L 971.183594 83.875 C 971.183594 83.875 971.507812 84.15625 971.671875 84.320312 C 971.832031 84.480469 971.996094 84.605469 972.15625 84.765625 C 973.496094 85.902344 974.917969 86.835938 976.378906 87.570312 C 977.839844 88.300781 979.34375 88.828125 980.84375 89.191406 L 981.414062 89.316406 L 981.980469 89.4375 C 981.980469 89.4375 982.347656 89.515625 982.550781 89.558594 L 983.117188 89.640625 C 983.117188 89.640625 983.320312 89.640625 983.402344 89.640625 L 983.6875 89.640625 L 984.253906 89.71875 L 985.066406 89.71875 C 985.066406 89.71875 985.230469 89.71875 985.351562 89.71875 C 986.8125 89.71875 988.191406 89.515625 989.449219 89.191406 C 990.75 88.867188 991.925781 88.378906 992.984375 87.851562 C 994.039062 87.285156 994.972656 86.675781 995.785156 85.984375 C 996.59375 85.292969 997.328125 84.605469 997.894531 83.875 C 998.503906 83.183594 998.992188 82.453125 999.398438 81.761719 C 999.800781 81.070312 1000.128906 80.421875 1000.371094 79.851562 L 1000.535156 79.40625 L 1000.613281 79.203125 C 1000.613281 79.203125 1000.65625 79.082031 1000.695312 79 L 1000.816406 78.59375 L 1000.898438 78.390625 L 1000.898438 78.230469 C 1001.019531 77.984375 1001.101562 77.78125 1001.140625 77.578125 L 1001.265625 77.050781 C 1001.265625 77.050781 1001.265625 76.886719 1001.304688 76.808594 L 1001.304688 76.605469 L 1001.386719 76.28125 L 1001.265625 76.5625 L 1001.265625 76.765625 C 1001.265625 76.765625 1001.140625 76.929688 1001.140625 76.96875 L 1000.9375 77.496094 C 1000.9375 77.496094 1000.777344 77.902344 1000.695312 78.105469 L 1000.613281 78.269531 L 1000.535156 78.429688 L 1000.371094 78.796875 C 1000.371094 78.796875 1000.332031 78.917969 1000.289062 79 L 1000.167969 79.203125 L 999.964844 79.609375 C 999.640625 80.136719 999.316406 80.746094 998.828125 81.355469 C 998.382812 81.964844 997.855469 82.574219 997.203125 83.183594 C 996.554688 83.792969 995.863281 84.402344 995.011719 84.929688 C 994.199219 85.457031 993.265625 85.984375 992.253906 86.390625 C 991.238281 86.796875 990.140625 87.082031 989.003906 87.285156 C 987.867188 87.488281 986.609375 87.488281 985.390625 87.40625 C 984.132812 87.285156 982.914062 87 981.617188 86.554688 C 980.359375 86.105469 979.097656 85.539062 977.921875 84.765625 C 976.746094 83.996094 975.609375 83.101562 974.59375 82.085938 C 974.472656 81.964844 974.347656 81.800781 974.226562 81.679688 C 974.105469 81.558594 973.984375 81.394531 973.863281 81.273438 L 973.496094 80.867188 L 973.414062 80.746094 L 973.335938 80.625 L 973.171875 80.421875 C 972.726562 79.851562 972.320312 79.203125 971.953125 78.554688 C 970.453125 75.953125 969.601562 72.910156 969.601562 69.78125 C 969.601562 69.578125 969.601562 69.375 969.601562 69.214844 L 969.601562 68.644531 L 969.679688 68.078125 L 969.761719 67.507812 C 969.761719 67.507812 969.761719 67.304688 969.761719 67.222656 L 969.761719 66.941406 C 969.761719 66.941406 969.882812 66.535156 969.925781 66.371094 L 970.046875 65.800781 C 970.046875 65.800781 970.085938 65.597656 970.128906 65.519531 L 970.207031 65.234375 C 970.65625 63.648438 971.265625 62.148438 972.035156 60.6875 C 972.808594 59.222656 973.78125 57.882812 974.878906 56.625 C 975.972656 55.40625 977.191406 54.269531 978.570312 53.296875 L 979.097656 52.929688 C 979.097656 52.929688 979.261719 52.808594 979.34375 52.765625 L 979.585938 52.605469 L 979.828125 52.441406 C 979.828125 52.441406 979.992188 52.320312 980.113281 52.28125 L 980.640625 51.996094 C 980.640625 51.996094 980.804688 51.875 980.925781 51.832031 L 981.210938 51.710938 L 981.777344 51.425781 C 981.777344 51.425781 982.144531 51.265625 982.347656 51.183594 L 982.632812 51.0625 L 982.753906 50.980469 L 982.914062 50.980469 C 984.457031 50.332031 986.042969 49.882812 987.664062 49.601562 C 989.289062 49.355469 990.914062 49.316406 992.535156 49.4375 L 992.820312 49.4375 L 993.105469 49.519531 L 993.714844 49.601562 L 994.324219 49.722656 C 994.324219 49.722656 994.726562 49.761719 994.929688 49.84375 L 995.539062 49.964844 C 995.539062 49.964844 995.742188 50.007812 995.824219 50.046875 L 996.109375 50.128906 L 996.71875 50.289062 C 996.71875 50.289062 997.125 50.414062 997.328125 50.453125 C 1000.535156 51.425781 1003.457031 53.011719 1005.972656 55 C 1008.488281 56.992188 1010.601562 59.425781 1012.226562 62.066406 L 1012.507812 62.554688 L 1012.753906 62.917969 L 1012.832031 63.042969 L 1013.363281 64.054688 L 1013.847656 65.070312 C 1013.847656 65.070312 1013.929688 65.234375 1013.96875 65.316406 L 1014.09375 65.558594 L 1014.296875 66.085938 C 1014.824219 67.46875 1015.269531 68.890625 1015.554688 70.308594 L 1015.675781 70.839844 L 1015.675781 71.082031 C 1015.675781 71.082031 1015.757812 71.242188 1015.757812 71.367188 C 1015.796875 71.730469 1015.878906 72.054688 1015.917969 72.421875 L 1016.039062 73.476562 C 1016.039062 73.476562 1016.039062 73.84375 1016.039062 74.003906 L 1016.039062 75.0625 L 1016.121094 75.589844 L 1016.121094 77.375 C 1016.121094 77.375 1016.121094 77.539062 1016.082031 77.621094 L 1016 78.632812 C 1016 78.632812 1016 78.960938 1015.960938 79.121094 L 1015.796875 80.097656 L 1015.714844 80.582031 L 1015.636719 81.070312 L 1015.636719 81.316406 C 1015.636719 81.316406 1015.554688 81.476562 1015.554688 81.558594 L 1015.433594 82.085938 C 1015.433594 82.085938 1015.351562 82.453125 1015.308594 82.613281 C 1015.148438 83.304688 1014.945312 84.035156 1014.742188 84.726562 L 1014.578125 85.253906 L 1014.5 85.496094 L 1014.417969 85.742188 L 1014.011719 86.796875 C 1012.957031 89.597656 1011.496094 92.359375 1009.585938 94.917969 C 1007.71875 97.476562 1005.40625 99.871094 1002.765625 101.902344 C 1000.128906 103.933594 997.125 105.640625 993.917969 106.855469 C 990.710938 108.074219 987.257812 108.847656 983.769531 109.089844 C 982.023438 109.210938 980.277344 109.171875 978.53125 109.050781 C 977.636719 108.96875 976.785156 108.886719 975.933594 108.726562 L 975.609375 108.726562 L 975.285156 108.601562 L 974.632812 108.480469 C 974.429688 108.480469 974.1875 108.398438 973.984375 108.359375 L 973.335938 108.238281 C 969.84375 107.464844 966.472656 106.289062 963.347656 104.746094 C 961.765625 103.972656 960.261719 103.121094 958.800781 102.1875 C 957.339844 101.253906 955.960938 100.238281 954.660156 99.183594 C 952.023438 97.070312 949.707031 94.675781 947.679688 92.199219 C 945.648438 89.71875 943.984375 87.082031 942.644531 84.480469 C 941.265625 81.882812 940.210938 79.242188 939.4375 76.765625 C 939.03125 75.507812 938.707031 74.289062 938.464844 73.113281 C 938.179688 71.933594 937.976562 70.757812 937.8125 69.660156 C 937.488281 67.425781 937.328125 65.394531 937.285156 63.609375 C 937.285156 61.824219 937.285156 60.28125 937.40625 59.019531 C 937.40625 58.859375 937.40625 58.695312 937.40625 58.574219 L 937.40625 58.128906 C 937.488281 57.84375 937.488281 57.601562 937.53125 57.355469 L 937.609375 56.707031 C 937.609375 56.503906 937.652344 56.300781 937.691406 56.136719 L 937.8125 55.121094 L 937.570312 56.097656 C 937.570312 56.097656 937.488281 56.421875 937.449219 56.625 L 937.285156 57.273438 C 937.246094 57.519531 937.164062 57.761719 937.125 58.046875 L 937.042969 58.492188 C 937.042969 58.492188 937.003906 58.777344 936.960938 58.941406 C 936.71875 60.199219 936.515625 61.742188 936.351562 63.527344 C 936.191406 65.355469 936.148438 67.425781 936.230469 69.742188 C 936.269531 70.878906 936.394531 72.097656 936.554688 73.355469 L 936.554688 73.597656 C 936.554688 73.597656 936.394531 73.234375 936.3125 73.070312 L 936.191406 72.785156 L 936.027344 72.503906 L 935.867188 72.21875 L 935.785156 72.054688 L 935.703125 71.933594 C 935.703125 71.933594 935.5 71.570312 935.378906 71.367188 L 935.011719 70.796875 C 935.011719 70.796875 934.730469 70.433594 934.605469 70.230469 C 934.039062 69.457031 933.347656 68.6875 932.578125 67.996094 C 931.804688 67.265625 930.914062 66.613281 929.898438 66.003906 C 928.921875 65.394531 927.828125 64.910156 926.691406 64.503906 C 925.554688 64.097656 924.296875 63.851562 923.039062 63.691406 C 922.710938 63.691406 922.386719 63.609375 922.105469 63.609375 L 921.617188 63.609375 C 921.617188 63.609375 921.292969 63.609375 921.128906 63.609375 L 920.15625 63.609375 C 920.15625 63.609375 919.832031 63.648438 919.667969 63.691406 L 919.179688 63.691406 C 919.179688 63.691406 918.855469 63.8125 918.695312 63.8125 C 918.53125 63.8125 918.367188 63.851562 918.207031 63.894531 C 917.882812 63.976562 917.558594 64.015625 917.234375 64.136719 C 916.90625 64.21875 916.582031 64.339844 916.257812 64.421875 C 916.097656 64.460938 915.933594 64.542969 915.769531 64.585938 C 915.609375 64.625 915.445312 64.707031 915.324219 64.789062 L 914.878906 64.992188 L 914.429688 65.234375 C 914.429688 65.234375 914.269531 65.316406 914.1875 65.355469 L 913.984375 65.476562 C 913.984375 65.476562 913.699219 65.640625 913.539062 65.722656 C 913.253906 65.882812 912.96875 66.085938 912.6875 66.289062 C 912.402344 66.492188 912.15625 66.695312 911.875 66.898438 C 911.753906 67.019531 911.628906 67.101562 911.507812 67.222656 C 911.386719 67.34375 911.265625 67.425781 911.144531 67.546875 L 910.777344 67.914062 C 910.777344 67.914062 910.535156 68.15625 910.453125 68.28125 L 910.289062 68.441406 L 910.128906 68.644531 L 909.804688 69.011719 L 909.519531 69.417969 C 909.519531 69.417969 909.4375 69.539062 909.355469 69.621094 L 909.234375 69.824219 C 909.234375 69.824219 909.03125 70.105469 908.949219 70.230469 L 908.707031 70.636719 C 908.707031 70.636719 908.625 70.757812 908.585938 70.839844 L 908.464844 71.039062 L 908.21875 71.445312 L 908.015625 71.851562 L 907.894531 72.054688 L 907.8125 72.257812 L 907.652344 72.707031 C 907.652344 72.707031 907.53125 72.988281 907.488281 73.152344 C 907.367188 73.4375 907.285156 73.722656 907.207031 74.003906 C 907.164062 74.167969 907.125 74.289062 907.082031 74.453125 C 907.082031 74.613281 907.003906 74.734375 906.960938 74.898438 C 906.839844 75.46875 906.757812 76.035156 906.679688 76.605469 C 906.554688 77.742188 906.597656 78.917969 906.800781 80.136719 C 906.878906 80.746094 907.042969 81.394531 907.246094 82.003906 Z M 907.246094 82.167969 " fill-opacity="1" fill-rule="nonzero"/><path fill="#000000" d="M 1141.480469 102.390625 C 1138.152344 103.285156 1134.742188 104.339844 1131.414062 105.515625 C 1128.042969 106.695312 1124.714844 108.035156 1121.386719 109.414062 C 1118.058594 110.796875 1114.808594 112.21875 1111.601562 113.558594 C 1110.019531 114.246094 1108.4375 114.898438 1106.851562 115.546875 L 1105.675781 116.035156 C 1105.269531 116.195312 1104.902344 116.359375 1104.539062 116.480469 C 1103.765625 116.804688 1103.035156 117.050781 1102.265625 117.332031 C 1102.0625 117.414062 1101.898438 117.457031 1101.695312 117.535156 L 1101.128906 117.738281 L 1100.558594 117.941406 L 1100.277344 118.023438 L 1099.992188 118.105469 C 1099.21875 118.347656 1098.488281 118.59375 1097.71875 118.835938 C 1097.351562 118.957031 1096.945312 119.078125 1096.582031 119.160156 L 1095.445312 119.484375 C 1095.445312 119.484375 1095.078125 119.609375 1094.875 119.648438 L 1094.308594 119.769531 L 1093.171875 120.054688 C 1090.125 120.746094 1087.121094 121.273438 1084.160156 121.597656 L 1083.589844 121.597656 L 1083.023438 121.71875 C 1082.65625 121.71875 1082.292969 121.800781 1081.925781 121.800781 L 1080.832031 121.882812 C 1080.464844 121.882812 1080.101562 121.921875 1079.734375 121.964844 C 1079.003906 121.964844 1078.273438 122.042969 1077.582031 122.042969 L 1076.527344 122.042969 C 1076.164062 122.042969 1075.835938 122.042969 1075.472656 122.042969 C 1074.78125 122.042969 1074.089844 122.003906 1073.402344 121.964844 C 1073.035156 121.964844 1072.710938 121.921875 1072.386719 121.882812 C 1072.0625 121.882812 1071.695312 121.839844 1071.371094 121.800781 L 1070.355469 121.679688 L 1069.871094 121.679688 L 1069.382812 121.558594 L 1068.410156 121.433594 C 1068.410156 121.433594 1068.082031 121.394531 1067.921875 121.355469 L 1067.433594 121.273438 C 1064.835938 120.828125 1062.320312 120.257812 1060.003906 119.484375 C 1057.652344 118.753906 1055.457031 117.863281 1053.386719 116.929688 C 1049.289062 115.019531 1045.757812 112.746094 1042.914062 110.472656 C 1042.710938 110.347656 1042.550781 110.1875 1042.386719 110.023438 L 1041.859375 109.617188 C 1041.859375 109.617188 1041.535156 109.335938 1041.371094 109.210938 L 1040.886719 108.804688 L 1040.398438 108.398438 L 1040.15625 108.195312 L 1039.910156 107.992188 L 1039.019531 107.183594 C 1039.019531 107.183594 1038.734375 106.898438 1038.613281 106.777344 L 1038.207031 106.371094 C 1037.921875 106.085938 1037.679688 105.84375 1037.433594 105.597656 C 1036.945312 105.070312 1036.460938 104.582031 1036.054688 104.097656 L 1035.445312 103.363281 C 1035.242188 103.121094 1035.078125 102.878906 1034.875 102.675781 L 1034.347656 102.023438 C 1034.1875 101.820312 1034.023438 101.617188 1033.863281 101.414062 L 1033.414062 100.847656 L 1033.007812 100.277344 L 1032.320312 99.34375 C 1032.117188 99.058594 1031.953125 98.816406 1031.792969 98.574219 L 1031.425781 98.003906 L 1031.140625 97.558594 L 1031.386719 98.046875 L 1031.667969 98.65625 C 1031.792969 98.898438 1031.914062 99.183594 1032.074219 99.464844 L 1032.605469 100.523438 L 1032.765625 100.804688 L 1032.929688 101.089844 L 1033.292969 101.742188 C 1033.414062 101.945312 1033.539062 102.1875 1033.699219 102.429688 L 1034.144531 103.160156 C 1034.308594 103.40625 1034.472656 103.691406 1034.632812 103.933594 L 1035.160156 104.746094 C 1035.527344 105.3125 1035.933594 105.882812 1036.378906 106.449219 C 1036.582031 106.734375 1036.824219 107.058594 1037.070312 107.34375 L 1037.433594 107.792969 C 1037.433594 107.792969 1037.679688 108.117188 1037.800781 108.277344 L 1038.613281 109.253906 L 1038.816406 109.496094 L 1039.015625 109.742188 L 1039.464844 110.226562 L 1039.910156 110.714844 C 1039.910156 110.714844 1040.234375 111.039062 1040.398438 111.203125 L 1040.886719 111.6875 C 1040.886719 111.6875 1041.210938 112.015625 1041.371094 112.175781 L 1042.425781 113.191406 C 1042.792969 113.515625 1043.15625 113.882812 1043.5625 114.207031 C 1043.644531 114.289062 1043.765625 114.371094 1043.847656 114.449219 L 1044.132812 114.695312 L 1044.742188 115.183594 C 1045.148438 115.546875 1045.554688 115.871094 1046 116.195312 C 1047.703125 117.535156 1049.613281 118.835938 1051.722656 120.09375 C 1053.835938 121.3125 1056.109375 122.492188 1058.585938 123.507812 C 1061.0625 124.523438 1063.699219 125.414062 1066.5 126.105469 L 1067.027344 126.226562 C 1067.027344 126.226562 1067.394531 126.308594 1067.554688 126.347656 L 1068.613281 126.59375 L 1069.140625 126.714844 L 1069.667969 126.796875 L 1070.761719 127 C 1071.128906 127.078125 1071.492188 127.121094 1071.859375 127.160156 C 1072.222656 127.203125 1072.589844 127.28125 1072.996094 127.324219 C 1073.765625 127.40625 1074.496094 127.484375 1075.269531 127.566406 C 1075.632812 127.566406 1076.039062 127.648438 1076.445312 127.648438 L 1077.625 127.648438 C 1078.394531 127.769531 1079.167969 127.769531 1079.976562 127.769531 C 1080.382812 127.769531 1080.75 127.769531 1081.15625 127.769531 L 1082.332031 127.769531 C 1082.738281 127.769531 1083.144531 127.769531 1083.550781 127.730469 L 1084.769531 127.730469 C 1088.015625 127.484375 1091.304688 127.121094 1094.632812 126.472656 L 1095.890625 126.226562 L 1096.5 126.105469 C 1096.703125 126.066406 1096.90625 126.023438 1097.109375 125.984375 L 1098.367188 125.699219 C 1098.773438 125.617188 1099.21875 125.496094 1099.625 125.375 C 1100.476562 125.171875 1101.289062 124.925781 1102.144531 124.683594 L 1102.46875 124.601562 L 1102.792969 124.523438 L 1104.011719 124.117188 C 1104.214844 124.035156 1104.417969 123.992188 1104.617188 123.914062 C 1105.472656 123.628906 1106.285156 123.34375 1107.136719 123.019531 C 1107.542969 122.855469 1107.988281 122.695312 1108.394531 122.574219 L 1109.613281 122.085938 C 1111.234375 121.433594 1112.859375 120.785156 1114.484375 120.136719 C 1117.730469 118.796875 1120.980469 117.414062 1124.265625 116.074219 C 1127.554688 114.734375 1130.804688 113.394531 1133.96875 112.21875 C 1137.175781 111 1140.34375 109.984375 1143.507812 109.007812 C 1146.675781 108.035156 1149.800781 107.183594 1152.886719 106.449219 C 1155.972656 105.71875 1159.015625 105.109375 1161.980469 104.625 C 1164.945312 104.136719 1167.90625 103.8125 1170.75 103.566406 C 1173.589844 103.363281 1176.390625 103.242188 1179.070312 103.285156 L 1181.058594 103.285156 L 1181.546875 103.363281 L 1182.035156 103.363281 L 1183.007812 103.445312 C 1183.332031 103.445312 1183.65625 103.488281 1183.980469 103.527344 C 1184.308594 103.527344 1184.632812 103.527344 1184.957031 103.609375 C 1185.605469 103.648438 1186.214844 103.730469 1186.824219 103.769531 C 1189.300781 104.015625 1191.695312 104.378906 1193.929688 104.828125 C 1196.203125 105.273438 1198.3125 105.800781 1200.300781 106.371094 C 1202.289062 106.9375 1204.199219 107.507812 1205.902344 108.15625 C 1209.355469 109.414062 1212.238281 110.753906 1214.46875 112.054688 C 1216.703125 113.355469 1218.324219 114.613281 1219.382812 115.507812 L 1219.746094 115.832031 C 1219.746094 115.832031 1219.949219 116.035156 1220.070312 116.117188 C 1220.273438 116.277344 1220.4375 116.441406 1220.558594 116.5625 L 1220.921875 116.929688 L 1220.597656 116.480469 C 1220.597656 116.480469 1220.355469 116.15625 1220.191406 115.953125 C 1220.113281 115.832031 1220.03125 115.75 1219.910156 115.628906 L 1219.585938 115.261719 C 1218.648438 114.207031 1217.230469 112.703125 1215.117188 111.082031 C 1213.007812 109.457031 1210.207031 107.667969 1206.796875 106.003906 C 1205.089844 105.152344 1203.222656 104.339844 1201.234375 103.527344 C 1199.246094 102.714844 1197.09375 101.945312 1194.78125 101.253906 C 1192.464844 100.5625 1190.03125 99.953125 1187.433594 99.464844 C 1186.785156 99.34375 1186.132812 99.222656 1185.484375 99.101562 C 1185.160156 99.058594 1184.835938 98.980469 1184.46875 98.9375 C 1184.144531 98.898438 1183.777344 98.816406 1183.453125 98.777344 L 1182.441406 98.65625 L 1181.910156 98.574219 L 1181.382812 98.574219 L 1180.328125 98.410156 L 1179.273438 98.328125 C 1176.429688 98.085938 1173.507812 97.964844 1170.464844 98.003906 C 1167.417969 98.003906 1164.332031 98.207031 1161.167969 98.53125 C 1158 98.855469 1154.753906 99.34375 1151.464844 99.953125 C 1148.175781 100.5625 1144.890625 101.375 1141.558594 102.269531 Z M 1141.480469 102.390625 " fill-opacity="1" fill-rule="nonzero"/><path fill="#000000" d="M 1035.8125 61.417969 L 1035.648438 61.78125 L 1035.324219 62.472656 C 1034.511719 64.339844 1033.863281 66.289062 1033.414062 68.199219 L 1033.253906 68.929688 L 1033.171875 69.292969 C 1033.171875 69.292969 1033.132812 69.539062 1033.089844 69.660156 C 1033.011719 70.148438 1032.929688 70.636719 1032.847656 71.121094 L 1032.644531 72.585938 C 1032.644531 72.828125 1032.605469 73.070312 1032.5625 73.316406 L 1032.5625 74.046875 L 1032.480469 74.410156 L 1032.480469 77.945312 C 1032.480469 77.945312 1032.480469 78.1875 1032.480469 78.308594 L 1032.605469 79.691406 C 1032.605469 79.933594 1032.644531 80.136719 1032.683594 80.378906 L 1032.847656 81.761719 L 1032.96875 82.453125 L 1033.089844 83.140625 L 1033.171875 83.507812 C 1033.171875 83.507812 1033.210938 83.75 1033.253906 83.832031 L 1033.414062 84.523438 C 1033.457031 84.765625 1033.539062 84.96875 1033.578125 85.214844 C 1033.820312 86.105469 1034.066406 87 1034.347656 87.933594 L 1034.59375 88.625 L 1034.835938 89.273438 L 1035.082031 89.964844 L 1035.363281 90.65625 C 1036.824219 94.226562 1038.816406 97.761719 1041.371094 100.929688 C 1043.890625 104.136719 1046.976562 107.019531 1050.425781 109.414062 C 1053.875 111.8125 1057.730469 113.71875 1061.832031 115.019531 C 1065.890625 116.320312 1070.195312 116.96875 1074.457031 116.929688 C 1076.566406 116.929688 1078.71875 116.765625 1080.789062 116.398438 C 1081.847656 116.238281 1082.859375 116.035156 1083.875 115.789062 L 1084.242188 115.710938 L 1084.605469 115.628906 L 1085.335938 115.425781 C 1085.582031 115.34375 1085.824219 115.304688 1086.066406 115.222656 L 1086.796875 115.019531 C 1090.734375 113.839844 1094.472656 112.175781 1097.839844 110.144531 C 1099.546875 109.132812 1101.167969 108.035156 1102.710938 106.855469 C 1104.253906 105.679688 1105.675781 104.421875 1107.054688 103.160156 C 1109.773438 100.5625 1112.089844 97.761719 1113.996094 94.835938 C 1115.945312 91.953125 1117.449219 88.988281 1118.625 86.066406 C 1118.707031 85.902344 1118.746094 85.78125 1118.789062 85.621094 C 1119.394531 84.117188 1119.925781 82.53125 1120.371094 80.949219 C 1120.574219 80.21875 1120.777344 79.445312 1120.9375 78.675781 C 1121.101562 77.945312 1121.222656 77.171875 1121.507812 76.484375 C 1121.710938 76.035156 1121.914062 75.628906 1122.15625 75.183594 L 1122.277344 74.980469 L 1122.359375 74.859375 L 1122.441406 74.734375 L 1122.726562 74.289062 C 1122.726562 74.289062 1122.929688 74.003906 1123.050781 73.84375 L 1123.210938 73.597656 L 1123.539062 73.113281 L 1123.617188 72.988281 L 1123.699219 72.867188 L 1124.105469 72.382812 L 1124.511719 71.933594 C 1124.511719 71.933594 1124.796875 71.648438 1124.957031 71.488281 C 1126.214844 70.269531 1127.800781 69.171875 1129.625 68.441406 C 1130.519531 68.078125 1131.492188 67.75 1132.507812 67.589844 C 1133.523438 67.386719 1134.539062 67.304688 1135.554688 67.34375 C 1135.796875 67.34375 1136.082031 67.34375 1136.324219 67.34375 L 1136.691406 67.34375 C 1136.691406 67.34375 1136.933594 67.425781 1137.054688 67.425781 L 1137.421875 67.425781 L 1137.785156 67.546875 C 1137.785156 67.546875 1138.03125 67.589844 1138.152344 67.628906 L 1138.515625 67.710938 C 1138.515625 67.710938 1138.761719 67.792969 1138.882812 67.792969 C 1139.003906 67.792969 1139.125 67.875 1139.246094 67.914062 C 1139.492188 67.996094 1139.695312 68.078125 1139.9375 68.15625 C 1140.179688 68.238281 1140.382812 68.359375 1140.628906 68.441406 C 1140.75 68.484375 1140.832031 68.5625 1140.953125 68.605469 C 1141.074219 68.644531 1141.15625 68.726562 1141.277344 68.765625 L 1141.601562 68.929688 L 1141.886719 69.132812 L 1142.046875 69.214844 L 1142.210938 69.335938 C 1142.210938 69.335938 1142.414062 69.457031 1142.496094 69.539062 C 1142.699219 69.699219 1142.859375 69.824219 1143.0625 69.984375 C 1143.226562 70.148438 1143.429688 70.308594 1143.589844 70.472656 C 1143.671875 70.554688 1143.753906 70.636719 1143.835938 70.714844 C 1143.914062 70.796875 1143.996094 70.878906 1144.078125 70.960938 L 1144.320312 71.203125 L 1144.523438 71.488281 L 1144.644531 71.609375 L 1144.726562 71.730469 L 1145.132812 72.300781 L 1145.214844 72.421875 L 1145.296875 72.585938 L 1145.457031 72.867188 L 1145.621094 73.152344 L 1145.703125 73.316406 L 1145.78125 73.476562 L 1145.90625 73.761719 L 1146.027344 74.046875 L 1146.109375 74.207031 L 1146.109375 74.371094 L 1146.269531 74.65625 C 1146.269531 74.65625 1146.351562 74.859375 1146.351562 74.9375 C 1146.433594 75.140625 1146.472656 75.34375 1146.511719 75.546875 C 1146.511719 75.628906 1146.554688 75.75 1146.59375 75.832031 C 1146.59375 75.914062 1146.636719 76.035156 1146.675781 76.117188 C 1146.757812 76.523438 1146.796875 76.886719 1146.839844 77.253906 C 1146.917969 78.027344 1146.917969 78.796875 1146.839844 79.648438 C 1146.796875 80.054688 1146.714844 80.421875 1146.636719 80.828125 C 1146.511719 81.234375 1146.390625 81.597656 1146.230469 82.003906 C 1146.066406 82.371094 1145.863281 82.777344 1145.621094 83.101562 C 1145.375 83.46875 1145.132812 83.792969 1144.847656 84.15625 C 1144.28125 84.808594 1143.550781 85.375 1142.738281 85.824219 C 1141.925781 86.269531 1141.03125 86.59375 1140.140625 86.757812 C 1139.695312 86.835938 1139.207031 86.878906 1138.71875 86.878906 C 1138.679688 86.878906 1138.597656 86.878906 1138.558594 86.878906 L 1138.394531 86.878906 C 1138.394531 86.878906 1138.152344 86.878906 1138.027344 86.878906 C 1137.90625 86.878906 1137.785156 86.878906 1137.703125 86.878906 L 1137.378906 86.878906 C 1136.488281 86.675781 1135.632812 86.308594 1134.863281 85.78125 C 1134.089844 85.253906 1133.484375 84.605469 1132.996094 83.832031 C 1132.507812 83.0625 1132.183594 82.207031 1132.019531 81.355469 C 1131.859375 80.503906 1131.859375 79.609375 1132.019531 78.835938 C 1132.183594 78.066406 1132.507812 77.335938 1132.914062 76.726562 C 1133.320312 76.117188 1133.847656 75.628906 1134.335938 75.222656 C 1134.863281 74.859375 1135.390625 74.574219 1135.878906 74.410156 C 1136.363281 74.25 1136.8125 74.128906 1137.175781 74.085938 C 1137.378906 74.085938 1137.542969 74.085938 1137.664062 74.046875 C 1137.828125 74.046875 1137.949219 74.046875 1138.03125 74.046875 C 1138.03125 74.046875 1137.828125 73.964844 1137.664062 73.925781 C 1137.5 73.925781 1137.339844 73.925781 1137.136719 73.882812 C 1136.769531 73.882812 1136.285156 73.882812 1135.714844 73.964844 C 1135.148438 74.046875 1134.539062 74.25 1133.886719 74.574219 C 1133.238281 74.898438 1132.550781 75.34375 1131.980469 75.996094 C 1131.371094 76.644531 1130.84375 77.457031 1130.480469 78.390625 C 1130.4375 78.511719 1130.398438 78.632812 1130.355469 78.757812 C 1130.355469 78.878906 1130.277344 79 1130.234375 79.121094 C 1130.234375 79.242188 1130.152344 79.367188 1130.152344 79.527344 C 1130.152344 79.648438 1130.113281 79.773438 1130.074219 79.933594 C 1129.992188 80.460938 1129.949219 80.988281 1129.992188 81.558594 C 1129.992188 82.695312 1130.277344 83.875 1130.761719 84.96875 C 1131.25 86.105469 1132.019531 87.164062 1132.996094 88.054688 C 1133.96875 88.949219 1135.148438 89.640625 1136.488281 90.085938 C 1136.566406 90.085938 1136.648438 90.125 1136.730469 90.167969 L 1136.972656 90.25 C 1136.972656 90.25 1137.296875 90.328125 1137.5 90.371094 C 1137.664062 90.371094 1137.828125 90.453125 1137.988281 90.453125 L 1138.230469 90.453125 C 1138.230469 90.453125 1138.394531 90.53125 1138.476562 90.53125 C 1139.164062 90.613281 1139.855469 90.65625 1140.546875 90.613281 C 1141.925781 90.53125 1143.308594 90.207031 1144.566406 89.679688 C 1145.824219 89.113281 1147 88.339844 1148.015625 87.40625 C 1148.503906 86.917969 1148.988281 86.429688 1149.394531 85.863281 C 1149.800781 85.335938 1150.167969 84.726562 1150.492188 84.15625 C 1150.816406 83.546875 1151.058594 82.9375 1151.261719 82.328125 C 1151.464844 81.722656 1151.628906 81.070312 1151.710938 80.460938 C 1151.914062 79.242188 1151.914062 78.066406 1151.832031 76.929688 C 1151.789062 76.359375 1151.667969 75.792969 1151.546875 75.222656 C 1151.546875 75.0625 1151.464844 74.9375 1151.425781 74.777344 C 1151.425781 74.613281 1151.34375 74.492188 1151.304688 74.332031 C 1151.222656 74.046875 1151.140625 73.761719 1151.019531 73.476562 C 1150.980469 73.316406 1150.898438 73.191406 1150.855469 73.03125 L 1150.695312 72.585938 L 1150.613281 72.382812 L 1150.492188 72.179688 L 1150.289062 71.773438 L 1150.046875 71.367188 L 1149.921875 71.164062 C 1149.921875 71.164062 1149.84375 71.042969 1149.800781 70.960938 L 1149.558594 70.554688 C 1149.558594 70.554688 1149.394531 70.269531 1149.273438 70.148438 L 1149.152344 69.945312 C 1149.152344 69.945312 1149.070312 69.824219 1148.988281 69.742188 L 1148.707031 69.335938 L 1148.382812 68.96875 L 1148.21875 68.765625 L 1148.054688 68.605469 C 1148.054688 68.605469 1147.851562 68.359375 1147.730469 68.238281 L 1147.367188 67.875 C 1147.367188 67.875 1147.121094 67.628906 1147 67.546875 C 1146.878906 67.425781 1146.757812 67.34375 1146.636719 67.222656 C 1146.390625 67.019531 1146.109375 66.816406 1145.824219 66.613281 C 1145.539062 66.410156 1145.253906 66.25 1144.972656 66.046875 C 1144.808594 65.964844 1144.6875 65.882812 1144.523438 65.800781 L 1144.320312 65.679688 C 1144.320312 65.679688 1144.160156 65.597656 1144.078125 65.558594 L 1143.632812 65.316406 L 1143.183594 65.113281 C 1143.183594 65.113281 1142.859375 64.992188 1142.738281 64.910156 C 1142.574219 64.867188 1142.414062 64.789062 1142.25 64.746094 C 1141.925781 64.625 1141.601562 64.542969 1141.277344 64.460938 C 1140.953125 64.382812 1140.628906 64.300781 1140.304688 64.21875 C 1140.140625 64.21875 1139.976562 64.179688 1139.816406 64.136719 C 1139.652344 64.136719 1139.492188 64.097656 1139.328125 64.054688 L 1138.839844 64.054688 C 1138.839844 64.054688 1138.515625 63.976562 1138.355469 63.976562 L 1137.378906 63.976562 C 1137.378906 63.976562 1137.054688 63.976562 1136.894531 63.976562 L 1136.40625 63.976562 C 1136.082031 63.976562 1135.757812 64.054688 1135.472656 64.054688 C 1134.214844 64.179688 1132.996094 64.460938 1131.820312 64.867188 C 1130.683594 65.273438 1129.585938 65.761719 1128.613281 66.371094 C 1127.636719 66.980469 1126.746094 67.628906 1125.933594 68.359375 C 1125.160156 69.09375 1124.472656 69.824219 1123.902344 70.59375 C 1123.78125 70.796875 1123.617188 70.960938 1123.496094 71.164062 L 1123.132812 71.730469 C 1123.132812 71.730469 1122.886719 72.097656 1122.804688 72.300781 L 1122.726562 72.421875 L 1122.644531 72.585938 L 1122.480469 72.867188 L 1122.320312 73.152344 L 1122.199219 73.4375 C 1122.199219 73.4375 1122.035156 73.800781 1121.953125 73.964844 L 1121.953125 73.722656 C 1122.074219 72.460938 1122.199219 71.242188 1122.238281 70.105469 C 1122.359375 67.792969 1122.238281 65.722656 1122.117188 63.894531 C 1121.953125 62.066406 1121.75 60.523438 1121.507812 59.304688 C 1121.507812 59.144531 1121.46875 58.980469 1121.425781 58.859375 L 1121.34375 58.410156 C 1121.304688 58.128906 1121.222656 57.882812 1121.183594 57.640625 L 1121.019531 56.992188 C 1121.019531 56.992188 1120.9375 56.625 1120.898438 56.460938 L 1120.65625 55.488281 L 1120.777344 56.503906 C 1120.777344 56.503906 1120.816406 56.867188 1120.859375 57.070312 L 1120.9375 57.722656 C 1120.9375 57.964844 1120.980469 58.207031 1121.019531 58.492188 L 1121.019531 58.941406 C 1121.019531 58.941406 1121.101562 59.222656 1121.101562 59.386719 C 1121.183594 60.644531 1121.265625 62.1875 1121.222656 63.976562 C 1121.222656 65.761719 1121.019531 67.792969 1120.695312 70.027344 C 1120.53125 71.121094 1120.332031 72.300781 1120.046875 73.476562 C 1119.761719 74.65625 1119.4375 75.914062 1119.070312 77.132812 C 1118.300781 79.648438 1117.246094 82.25 1115.863281 84.847656 C 1114.484375 87.445312 1112.820312 90.085938 1110.832031 92.5625 C 1108.839844 95.039062 1106.488281 97.4375 1103.847656 99.546875 C 1102.550781 100.605469 1101.128906 101.617188 1099.707031 102.550781 C 1098.246094 103.488281 1096.746094 104.339844 1095.160156 105.109375 C 1091.996094 106.652344 1088.625 107.832031 1085.175781 108.601562 L 1084.523438 108.726562 C 1084.324219 108.765625 1084.078125 108.804688 1083.875 108.847656 L 1083.226562 108.96875 L 1082.902344 108.96875 L 1082.578125 109.089844 C 1081.722656 109.253906 1080.832031 109.335938 1079.980469 109.414062 C 1078.234375 109.578125 1076.488281 109.578125 1074.742188 109.457031 C 1071.25 109.210938 1067.839844 108.480469 1064.59375 107.222656 C 1061.386719 106.003906 1058.382812 104.300781 1055.742188 102.269531 C 1053.105469 100.238281 1050.789062 97.84375 1048.921875 95.285156 C 1047.054688 92.726562 1045.59375 89.964844 1044.5 87.164062 L 1044.296875 86.632812 L 1044.09375 86.105469 L 1043.929688 85.621094 L 1043.769531 85.089844 C 1043.566406 84.402344 1043.363281 83.671875 1043.199219 82.980469 C 1043.160156 82.816406 1043.117188 82.613281 1043.078125 82.453125 L 1042.957031 81.925781 C 1042.957031 81.925781 1042.914062 81.761719 1042.914062 81.679688 L 1042.914062 81.4375 L 1042.792969 80.949219 L 1042.710938 80.460938 L 1042.632812 79.976562 L 1042.550781 79.488281 C 1042.550781 79.488281 1042.507812 79.164062 1042.507812 79 L 1042.429688 77.984375 C 1042.429688 77.984375 1042.429688 77.824219 1042.429688 77.742188 L 1042.429688 74.410156 C 1042.429688 74.410156 1042.46875 74.046875 1042.507812 73.882812 L 1042.632812 72.828125 C 1042.671875 72.460938 1042.753906 72.136719 1042.792969 71.773438 C 1042.792969 71.691406 1042.792969 71.609375 1042.835938 71.488281 L 1042.835938 71.242188 L 1042.996094 70.714844 C 1043.320312 69.292969 1043.726562 67.914062 1044.253906 66.492188 L 1044.457031 65.964844 L 1044.578125 65.722656 C 1044.578125 65.722656 1044.660156 65.558594 1044.703125 65.476562 L 1045.1875 64.460938 L 1045.714844 63.449219 L 1045.796875 63.324219 L 1046.042969 62.960938 L 1046.324219 62.472656 C 1047.949219 59.832031 1050.019531 57.4375 1052.578125 55.40625 C 1055.09375 53.417969 1058.058594 51.832031 1061.222656 50.859375 C 1061.425781 50.777344 1061.628906 50.738281 1061.832031 50.695312 L 1062.441406 50.535156 L 1062.726562 50.453125 C 1062.726562 50.453125 1062.929688 50.414062 1063.011719 50.371094 L 1063.617188 50.25 C 1063.617188 50.25 1064.023438 50.167969 1064.226562 50.128906 L 1064.835938 50.007812 L 1065.445312 49.925781 L 1065.890625 49.925781 L 1066.054688 49.84375 C 1067.679688 49.722656 1069.300781 49.761719 1070.925781 50.007812 C 1072.550781 50.25 1074.132812 50.695312 1075.675781 51.304688 L 1075.835938 51.304688 L 1075.960938 51.425781 L 1076.242188 51.550781 C 1076.242188 51.550781 1076.609375 51.710938 1076.8125 51.792969 L 1077.378906 52.078125 L 1077.664062 52.199219 C 1077.664062 52.199219 1077.828125 52.28125 1077.949219 52.363281 L 1078.476562 52.644531 C 1078.476562 52.644531 1078.640625 52.765625 1078.761719 52.808594 L 1079.003906 52.96875 L 1079.25 53.132812 C 1079.25 53.132812 1079.410156 53.253906 1079.492188 53.296875 L 1080.019531 53.660156 C 1081.359375 54.59375 1082.617188 55.730469 1083.714844 56.992188 C 1084.808594 58.207031 1085.785156 59.589844 1086.554688 61.050781 C 1087.328125 62.511719 1087.933594 64.015625 1088.382812 65.597656 L 1088.464844 65.882812 C 1088.464844 65.882812 1088.503906 66.085938 1088.542969 66.167969 L 1088.667969 66.738281 C 1088.667969 66.738281 1088.746094 67.144531 1088.789062 67.304688 L 1088.789062 67.589844 C 1088.789062 67.589844 1088.867188 67.792969 1088.867188 67.875 L 1088.949219 68.441406 L 1088.949219 69.011719 L 1089.03125 69.292969 L 1089.03125 69.578125 C 1089.03125 69.578125 1089.03125 69.984375 1089.03125 70.148438 C 1089.03125 73.273438 1088.179688 76.320312 1086.675781 78.917969 C 1086.3125 79.570312 1085.90625 80.179688 1085.460938 80.785156 L 1085.296875 80.988281 L 1085.214844 81.113281 L 1085.132812 81.234375 L 1084.769531 81.640625 C 1084.769531 81.640625 1084.527344 81.925781 1084.402344 82.046875 C 1084.28125 82.167969 1084.160156 82.328125 1084.039062 82.453125 C 1083.023438 83.507812 1081.886719 84.402344 1080.710938 85.132812 C 1079.53125 85.863281 1078.273438 86.472656 1077.015625 86.917969 C 1075.757812 87.367188 1074.5 87.691406 1073.238281 87.769531 C 1071.980469 87.894531 1070.765625 87.851562 1069.628906 87.648438 C 1068.492188 87.488281 1067.394531 87.164062 1066.378906 86.757812 C 1065.363281 86.351562 1064.472656 85.863281 1063.617188 85.292969 C 1062.808594 84.765625 1062.078125 84.15625 1061.425781 83.546875 C 1060.777344 82.9375 1060.25 82.328125 1059.804688 81.722656 C 1059.355469 81.113281 1058.992188 80.542969 1058.667969 79.976562 L 1058.464844 79.570312 L 1058.339844 79.367188 C 1058.339844 79.367188 1058.300781 79.242188 1058.261719 79.164062 L 1058.097656 78.796875 L 1058.015625 78.632812 L 1057.9375 78.472656 C 1057.855469 78.269531 1057.773438 78.027344 1057.691406 77.863281 L 1057.488281 77.335938 C 1057.488281 77.335938 1057.449219 77.171875 1057.410156 77.132812 L 1057.410156 76.929688 L 1057.246094 76.644531 L 1057.164062 76.402344 L 1057.164062 76.644531 L 1057.246094 76.96875 L 1057.246094 77.171875 C 1057.246094 77.171875 1057.328125 77.335938 1057.328125 77.417969 L 1057.449219 77.945312 C 1057.449219 77.945312 1057.570312 78.351562 1057.652344 78.59375 L 1057.652344 78.757812 L 1057.773438 78.960938 L 1057.894531 79.367188 C 1057.894531 79.367188 1057.9375 79.488281 1057.976562 79.570312 L 1058.058594 79.773438 L 1058.21875 80.21875 C 1058.464844 80.785156 1058.789062 81.4375 1059.195312 82.128906 C 1059.601562 82.816406 1060.085938 83.507812 1060.695312 84.238281 C 1061.304688 84.929688 1061.996094 85.660156 1062.808594 86.351562 C 1063.617188 87.039062 1064.550781 87.648438 1065.609375 88.21875 C 1066.664062 88.785156 1067.839844 89.234375 1069.140625 89.558594 C 1070.398438 89.882812 1071.820312 90.085938 1073.238281 90.085938 C 1073.320312 90.085938 1073.402344 90.085938 1073.523438 90.085938 L 1074.335938 90.085938 L 1074.90625 90.003906 L 1075.1875 90.003906 C 1075.1875 90.003906 1075.390625 89.964844 1075.472656 89.964844 L 1076.042969 89.882812 C 1076.042969 89.882812 1076.40625 89.800781 1076.609375 89.761719 L 1077.179688 89.640625 L 1077.746094 89.515625 C 1079.25 89.152344 1080.75 88.625 1082.210938 87.894531 C 1083.671875 87.164062 1085.09375 86.226562 1086.433594 85.089844 C 1086.597656 84.96875 1086.757812 84.808594 1086.921875 84.644531 C 1087.082031 84.480469 1087.246094 84.359375 1087.410156 84.199219 L 1087.894531 83.710938 L 1088.015625 83.589844 L 1088.140625 83.46875 L 1088.382812 83.222656 C 1088.992188 82.574219 1089.558594 81.84375 1090.085938 81.113281 C 1091.144531 79.609375 1092.035156 77.945312 1092.6875 76.117188 C 1093.375 74.332031 1093.78125 72.382812 1093.984375 70.390625 C 1093.984375 70.148438 1093.984375 69.902344 1094.027344 69.621094 L 1094.027344 67.34375 C 1094.027344 67.34375 1094.027344 67.101562 1094.027344 66.980469 L 1094.027344 66.613281 C 1093.984375 66.371094 1093.945312 66.085938 1093.902344 65.84375 L 1093.78125 65.070312 C 1093.78125 65.070312 1093.78125 64.828125 1093.742188 64.707031 L 1093.660156 64.339844 C 1093.292969 62.351562 1092.6875 60.359375 1091.832031 58.453125 C 1091.019531 56.542969 1089.925781 54.714844 1088.625 52.96875 C 1087.328125 51.265625 1085.867188 49.679688 1084.160156 48.300781 L 1083.511719 47.773438 C 1083.511719 47.773438 1083.308594 47.609375 1083.1875 47.527344 L 1082.863281 47.285156 L 1082.535156 47.042969 C 1082.535156 47.042969 1082.335938 46.878906 1082.210938 46.796875 L 1081.523438 46.351562 C 1081.523438 46.351562 1081.277344 46.1875 1081.199219 46.109375 L 1080.832031 45.90625 L 1080.140625 45.5 C 1079.898438 45.375 1079.65625 45.253906 1079.410156 45.09375 L 1079.046875 44.890625 C 1079.046875 44.890625 1078.925781 44.808594 1078.84375 44.808594 L 1078.640625 44.726562 C 1076.652344 43.753906 1074.539062 42.980469 1072.347656 42.492188 C 1070.15625 42.007812 1067.921875 41.804688 1065.648438 41.84375 L 1064.796875 41.84375 L 1063.09375 42.007812 C 1062.808594 42.007812 1062.523438 42.046875 1062.238281 42.085938 L 1061.386719 42.210938 C 1061.386719 42.210938 1061.101562 42.25 1060.980469 42.289062 L 1059.761719 42.535156 C 1059.480469 42.574219 1059.234375 42.65625 1058.953125 42.695312 C 1054.6875 43.710938 1050.671875 45.578125 1047.136719 48.097656 C 1043.605469 50.613281 1040.601562 53.742188 1038.289062 57.234375 L 1037.679688 58.207031 L 1037.558594 58.371094 L 1037.476562 58.535156 C 1037.234375 58.980469 1036.949219 59.425781 1036.707031 59.875 L 1036.015625 61.253906 C 1036.015625 61.253906 1035.894531 61.5 1035.851562 61.621094 Z M 1035.8125 61.417969 " fill-opacity="1" fill-rule="nonzero"/><path fill="#000000" d="M 936.394531 122.613281 C 935.621094 122.289062 934.851562 121.964844 934.078125 121.636719 L 151.6875 121.636719 L 151.6875 124.238281 L 940.332031 124.238281 C 939.03125 123.710938 937.691406 123.140625 936.394531 122.613281 Z M 936.394531 122.613281 " fill-opacity="1" fill-rule="nonzero"/><path fill="#000000" d="M 1014.296875 121.636719 C 1013.035156 122.574219 1011.738281 123.425781 1010.398438 124.238281 L 1048.152344 124.238281 C 1046.8125 123.425781 1045.511719 122.53125 1044.253906 121.636719 Z M 1014.296875 121.636719 " fill-opacity="1" fill-rule="nonzero"/><path fill="#000000" d="M 1122.15625 122.613281 C 1120.859375 123.140625 1119.558594 123.710938 1118.257812 124.238281 L 1906.902344 124.238281 L 1906.902344 121.636719 L 1124.511719 121.636719 C 1123.738281 121.964844 1122.96875 122.289062 1122.15625 122.613281 Z M 1122.15625 122.613281 " fill-opacity="1" fill-rule="nonzero"/></svg>